<mxfile host="app.diagrams.net" modified="2023-12-05T20:51:14.334Z" agent="Mozilla/5.0 (Windows NT 10.0; Win64; x64) AppleWebKit/537.36 (KHTML, like Gecko) Chrome/119.0.0.0 Safari/537.36" etag="NEOpdOD1Wbq194m4Ww4p" version="22.1.5" type="github">
  <diagram name="Page-1" id="c37626ed-c26b-45fb-9056-f9ebc6bb27b6">
    <mxGraphModel dx="1195" dy="650" grid="1" gridSize="10" guides="1" tooltips="1" connect="1" arrows="1" fold="1" page="1" pageScale="1" pageWidth="1100" pageHeight="850" background="none" math="0" shadow="0">
      <root>
        <mxCell id="0" />
        <mxCell id="1" parent="0" />
        <mxCell id="nYcwL5z9y9n_2tt5qyNE-12" style="edgeStyle=orthogonalEdgeStyle;rounded=0;orthogonalLoop=1;jettySize=auto;html=1;exitX=1;exitY=0.5;exitDx=0;exitDy=0;exitPerimeter=0;endArrow=none;endFill=0;" parent="1" source="nYcwL5z9y9n_2tt5qyNE-1" target="nYcwL5z9y9n_2tt5qyNE-6" edge="1">
          <mxGeometry relative="1" as="geometry" />
        </mxCell>
        <mxCell id="nYcwL5z9y9n_2tt5qyNE-13" style="edgeStyle=orthogonalEdgeStyle;rounded=0;orthogonalLoop=1;jettySize=auto;html=1;exitX=0;exitY=0.5;exitDx=0;exitDy=0;exitPerimeter=0;endArrow=none;endFill=0;" parent="1" source="nYcwL5z9y9n_2tt5qyNE-1" target="nYcwL5z9y9n_2tt5qyNE-5" edge="1">
          <mxGeometry relative="1" as="geometry" />
        </mxCell>
        <mxCell id="nYcwL5z9y9n_2tt5qyNE-1" value="&lt;b&gt;&lt;font style=&quot;font-size: 14px;&quot;&gt;LFS&lt;/font&gt;&lt;/b&gt;&lt;br&gt;192.168.33.33&lt;br&gt;192.168.111.111&lt;br&gt;192.168.88.88" style="shape=mxgraph.cisco.routers.router;html=1;dashed=0;fillColor=#036897;strokeColor=#ffffff;strokeWidth=2;verticalLabelPosition=bottom;verticalAlign=top;rounded=0;shadow=0;comic=0;fontFamily=Verdana;fontSize=12;" parent="1" vertex="1">
          <mxGeometry x="450" y="400" width="78" height="44" as="geometry" />
        </mxCell>
        <mxCell id="nYcwL5z9y9n_2tt5qyNE-5" value="&lt;font style=&quot;font-size: 12px;&quot;&gt;&lt;b&gt;Fedora&lt;/b&gt;&lt;br&gt;192.168.88.89&lt;br&gt;&lt;/font&gt;" style="shape=mxgraph.cisco.servers.fileserver;sketch=0;html=1;pointerEvents=1;dashed=0;fillColor=#036897;strokeColor=#ffffff;strokeWidth=2;verticalLabelPosition=bottom;verticalAlign=top;align=center;outlineConnect=0;" parent="1" vertex="1">
          <mxGeometry x="250" y="500" width="43" height="62" as="geometry" />
        </mxCell>
        <mxCell id="nYcwL5z9y9n_2tt5qyNE-6" value="&lt;font style=&quot;font-size: 12px;&quot;&gt;&lt;b&gt;Mint&lt;/b&gt;&lt;br&gt;192.168.111.112&lt;br&gt;&lt;/font&gt;" style="shape=mxgraph.cisco.servers.fileserver;sketch=0;html=1;pointerEvents=1;dashed=0;fillColor=#036897;strokeColor=#ffffff;strokeWidth=2;verticalLabelPosition=bottom;verticalAlign=top;align=center;outlineConnect=0;" parent="1" vertex="1">
          <mxGeometry x="710" y="500" width="43" height="62" as="geometry" />
        </mxCell>
        <mxCell id="nYcwL5z9y9n_2tt5qyNE-7" value="&lt;font style=&quot;font-size: 12px;&quot;&gt;&lt;b&gt;Ubuntu&lt;/b&gt;&lt;br&gt;192.168.33.34&lt;br&gt;&lt;/font&gt;" style="shape=mxgraph.cisco.servers.fileserver;sketch=0;html=1;pointerEvents=1;dashed=0;fillColor=#036897;strokeColor=#ffffff;strokeWidth=2;verticalLabelPosition=bottom;verticalAlign=top;align=center;outlineConnect=0;" parent="1" vertex="1">
          <mxGeometry x="340" y="180" width="43" height="62" as="geometry" />
        </mxCell>
        <mxCell id="nYcwL5z9y9n_2tt5qyNE-14" style="edgeStyle=orthogonalEdgeStyle;rounded=0;orthogonalLoop=1;jettySize=auto;html=1;exitX=0.5;exitY=0;exitDx=0;exitDy=0;exitPerimeter=0;entryX=0.5;entryY=0;entryDx=0;entryDy=0;entryPerimeter=0;endArrow=none;endFill=0;" parent="1" source="nYcwL5z9y9n_2tt5qyNE-1" target="nYcwL5z9y9n_2tt5qyNE-7" edge="1">
          <mxGeometry relative="1" as="geometry" />
        </mxCell>
        <mxCell id="nYcwL5z9y9n_2tt5qyNE-15" value="&lt;font style=&quot;font-size: 20px;&quot;&gt;LAN_Fedora&lt;/font&gt;" style="text;strokeColor=none;fillColor=none;html=1;fontSize=24;fontStyle=1;verticalAlign=middle;align=center;" parent="1" vertex="1">
          <mxGeometry x="280" y="370" width="100" height="35" as="geometry" />
        </mxCell>
        <mxCell id="nYcwL5z9y9n_2tt5qyNE-16" value="&lt;span style=&quot;color: rgb(0, 0, 0); font-family: Helvetica; font-style: normal; font-variant-ligatures: normal; font-variant-caps: normal; letter-spacing: normal; orphans: 2; text-align: center; text-indent: 0px; text-transform: none; widows: 2; word-spacing: 0px; -webkit-text-stroke-width: 0px; background-color: rgb(251, 251, 251); text-decoration-thickness: initial; text-decoration-style: initial; text-decoration-color: initial; float: none; display: inline !important;&quot;&gt;&lt;font style=&quot;font-weight: 700; font-size: 20px;&quot;&gt;LAN_Mint&lt;/font&gt;&lt;br&gt;&lt;/span&gt;" style="text;whiteSpace=wrap;html=1;" parent="1" vertex="1">
          <mxGeometry x="613" y="370" width="140" height="15" as="geometry" />
        </mxCell>
        <mxCell id="nYcwL5z9y9n_2tt5qyNE-17" value="&lt;span style=&quot;color: rgb(0, 0, 0); font-family: Helvetica; font-style: normal; font-variant-ligatures: normal; font-variant-caps: normal; letter-spacing: normal; orphans: 2; text-align: center; text-indent: 0px; text-transform: none; widows: 2; word-spacing: 0px; -webkit-text-stroke-width: 0px; background-color: rgb(251, 251, 251); text-decoration-thickness: initial; text-decoration-style: initial; text-decoration-color: initial; float: none; display: inline !important;&quot;&gt;&lt;span style=&quot;font-weight: 700;&quot;&gt;&lt;font style=&quot;font-size: 20px;&quot;&gt;LAN_Mint&lt;/font&gt;&lt;/span&gt;&lt;br&gt;&lt;font style=&quot;font-size: 14px;&quot;&gt;192.168.33.0/24&lt;/font&gt;&lt;br&gt;&lt;/span&gt;" style="text;whiteSpace=wrap;html=1;rotation=-90;" parent="1" vertex="1">
          <mxGeometry x="440" y="180" width="140" height="50" as="geometry" />
        </mxCell>
        <mxCell id="8b2rsscjEQyHfSQhl9Nh-3" value="&lt;span style=&quot;color: rgb(0, 0, 0); font-family: Verdana; font-size: 12px; font-style: normal; font-variant-ligatures: normal; font-variant-caps: normal; font-weight: 400; letter-spacing: normal; orphans: 2; text-align: center; text-indent: 0px; text-transform: none; widows: 2; word-spacing: 0px; -webkit-text-stroke-width: 0px; background-color: rgb(251, 251, 251); text-decoration-thickness: initial; text-decoration-style: initial; text-decoration-color: initial; float: none; display: inline !important;&quot;&gt;192.168.111.0/24&lt;/span&gt;" style="text;whiteSpace=wrap;html=1;" vertex="1" parent="1">
          <mxGeometry x="613" y="400" width="140" height="40" as="geometry" />
        </mxCell>
        <mxCell id="8b2rsscjEQyHfSQhl9Nh-4" value="&lt;span style=&quot;color: rgb(0, 0, 0); font-family: Verdana; font-size: 12px; font-style: normal; font-variant-ligatures: normal; font-variant-caps: normal; font-weight: 400; letter-spacing: normal; orphans: 2; text-align: center; text-indent: 0px; text-transform: none; widows: 2; word-spacing: 0px; -webkit-text-stroke-width: 0px; background-color: rgb(251, 251, 251); text-decoration-thickness: initial; text-decoration-style: initial; text-decoration-color: initial; float: none; display: inline !important;&quot;&gt;192.168.88.0/24&lt;/span&gt;" style="text;whiteSpace=wrap;html=1;" vertex="1" parent="1">
          <mxGeometry x="280" y="400" width="140" height="40" as="geometry" />
        </mxCell>
        <mxCell id="8b2rsscjEQyHfSQhl9Nh-5" value="FTPserver" style="label;whiteSpace=wrap;html=1;image=img/clipart/Gear_128x128.png" vertex="1" parent="1">
          <mxGeometry x="770" y="480" width="150" height="40" as="geometry" />
        </mxCell>
        <mxCell id="8b2rsscjEQyHfSQhl9Nh-7" value="Apache2" style="label;whiteSpace=wrap;html=1;image=img/clipart/Gear_128x128.png" vertex="1" parent="1">
          <mxGeometry x="770" y="530" width="150" height="40" as="geometry" />
        </mxCell>
        <mxCell id="8b2rsscjEQyHfSQhl9Nh-8" value="sshd" style="label;whiteSpace=wrap;html=1;image=img/clipart/Gear_128x128.png" vertex="1" parent="1">
          <mxGeometry x="770" y="425" width="150" height="40" as="geometry" />
        </mxCell>
      </root>
    </mxGraphModel>
  </diagram>
</mxfile>
